<mxfile host="app.diagrams.net" modified="2024-02-27T00:53:46.909Z" agent="Mozilla/5.0 (Windows NT 10.0; Win64; x64; rv:123.0) Gecko/20100101 Firefox/123.0" etag="1mZARuM2x-fPEB6bo6fv" version="23.1.6" type="github">
  <diagram name="Page-1" id="7SzVyO7Qw_xMHKtwjRgV">
    <mxGraphModel dx="2261" dy="792" grid="1" gridSize="10" guides="1" tooltips="1" connect="1" arrows="1" fold="1" page="1" pageScale="1" pageWidth="827" pageHeight="1169" math="0" shadow="0">
      <root>
        <mxCell id="0" />
        <mxCell id="1" parent="0" />
        <mxCell id="vd82ChIToTFtdPqPkoJP-4" value="" style="rounded=0;whiteSpace=wrap;html=1;" vertex="1" parent="1">
          <mxGeometry x="-220" y="130" width="890" height="570" as="geometry" />
        </mxCell>
        <mxCell id="vd82ChIToTFtdPqPkoJP-3" value="&lt;font style=&quot;font-size: 36px;&quot;&gt;É&lt;/font&gt;" style="text;html=1;align=center;verticalAlign=middle;whiteSpace=wrap;rounded=0;fontFamily=Kalam;fontSource=https%3A%2F%2Ffonts.googleapis.com%2Fcss%3Ffamily%3DKalam;" vertex="1" parent="1">
          <mxGeometry x="-220" y="430" width="60" height="30" as="geometry" />
        </mxCell>
        <mxCell id="vd82ChIToTFtdPqPkoJP-5" value="" style="endArrow=none;html=1;rounded=0;entryX=0.5;entryY=0;entryDx=0;entryDy=0;exitX=0.5;exitY=1;exitDx=0;exitDy=0;" edge="1" parent="1" source="vd82ChIToTFtdPqPkoJP-4" target="vd82ChIToTFtdPqPkoJP-4">
          <mxGeometry width="50" height="50" relative="1" as="geometry">
            <mxPoint x="490" y="360" as="sourcePoint" />
            <mxPoint x="540" y="310" as="targetPoint" />
          </mxGeometry>
        </mxCell>
        <mxCell id="vd82ChIToTFtdPqPkoJP-6" value="" style="endArrow=none;html=1;rounded=0;entryX=1;entryY=0.5;entryDx=0;entryDy=0;exitX=0;exitY=0.5;exitDx=0;exitDy=0;" edge="1" parent="1" source="vd82ChIToTFtdPqPkoJP-4" target="vd82ChIToTFtdPqPkoJP-4">
          <mxGeometry width="50" height="50" relative="1" as="geometry">
            <mxPoint x="235" y="710" as="sourcePoint" />
            <mxPoint x="235" y="140" as="targetPoint" />
          </mxGeometry>
        </mxCell>
        <mxCell id="vd82ChIToTFtdPqPkoJP-8" value="&lt;font style=&quot;font-size: 36px;&quot;&gt;Não Faz&lt;br&gt;&lt;/font&gt;" style="text;html=1;align=center;verticalAlign=middle;whiteSpace=wrap;rounded=0;fontFamily=Kalam;fontSource=https%3A%2F%2Ffonts.googleapis.com%2Fcss%3Ffamily%3DKalam;" vertex="1" parent="1">
          <mxGeometry x="230" y="140" width="140" height="30" as="geometry" />
        </mxCell>
        <mxCell id="vd82ChIToTFtdPqPkoJP-10" value="&lt;font style=&quot;font-size: 36px;&quot;&gt;Faz&lt;/font&gt;" style="text;html=1;align=center;verticalAlign=middle;whiteSpace=wrap;rounded=0;fontFamily=Kalam;fontSource=https%3A%2F%2Ffonts.googleapis.com%2Fcss%3Ffamily%3DKalam;" vertex="1" parent="1">
          <mxGeometry x="-210" y="160" width="60" height="30" as="geometry" />
        </mxCell>
        <mxCell id="vd82ChIToTFtdPqPkoJP-12" value="&lt;font style=&quot;font-size: 36px;&quot;&gt;Não É&lt;br&gt;&lt;/font&gt;" style="text;html=1;align=center;verticalAlign=middle;whiteSpace=wrap;rounded=0;fontFamily=Kalam;fontSource=https%3A%2F%2Ffonts.googleapis.com%2Fcss%3Ffamily%3DKalam;" vertex="1" parent="1">
          <mxGeometry x="220" y="430" width="140" height="30" as="geometry" />
        </mxCell>
        <mxCell id="vd82ChIToTFtdPqPkoJP-13" value="&lt;ul style=&quot;margin: 4px 0px 0px 16px; padding: 0px; border: 0px; font-style: normal; vertical-align: baseline; list-style: outside; font-variant-ligatures: normal; font-variant-caps: normal; letter-spacing: normal; text-align: left; text-indent: 0px; text-transform: none; word-spacing: 0px; -webkit-text-stroke-width: 0px; text-decoration-thickness: initial; text-decoration-style: initial; text-decoration-color: initial; font-size: 15px;&quot;&gt;&lt;li style=&quot;margin: 0px 0px 4px; padding: 0px; border: 0px; font-style: inherit; vertical-align: baseline;&quot;&gt;&lt;font style=&quot;font-size: 15px;&quot; data-font-src=&quot;https://fonts.googleapis.com/css?family=Kalam&quot; face=&quot;Kalam&quot;&gt;&lt;span style=&quot;margin: 0px; padding: 0px; border: 0px; font-style: inherit; vertical-align: baseline; outline: 0px;&quot;&gt;Monitora o corpo humano&lt;/span&gt;&lt;span style=&quot;margin: 0px; padding: 0px; border: 0px; font-style: inherit; vertical-align: baseline; outline: 0px;&quot;&gt;&lt;/span&gt;&lt;/font&gt;&lt;/li&gt;&lt;li style=&quot;margin: 0px 0px 4px; padding: 0px; border: 0px; font-style: inherit; vertical-align: baseline;&quot;&gt;&lt;font data-font-src=&quot;https://fonts.googleapis.com/css?family=Kalam&quot; face=&quot;Kalam&quot; style=&quot;font-size: 15px;&quot;&gt;&lt;span style=&quot;margin: 0px; padding: 0px; border: 0px; font-style: inherit; vertical-align: baseline; outline: 0px;&quot;&gt;&lt;span style=&quot;margin: 0px; padding: 0px; border: 0px; font-style: inherit; vertical-align: baseline; outline: 0px;&quot;&gt;Processa os dados captados e gera relatórios&lt;/span&gt;&lt;/span&gt;&lt;/font&gt;&lt;/li&gt;&lt;li style=&quot;margin: 0px 0px 4px; padding: 0px; border: 0px; font-style: inherit; vertical-align: baseline;&quot;&gt;&lt;font data-font-src=&quot;https://fonts.googleapis.com/css?family=Kalam&quot; face=&quot;Kalam&quot; style=&quot;font-size: 15px;&quot;&gt;&lt;span style=&quot;margin: 0px; padding: 0px; border: 0px; font-style: inherit; vertical-align: baseline; outline: 0px;&quot;&gt;&lt;span style=&quot;margin: 0px; padding: 0px; border: 0px; font-style: inherit; vertical-align: baseline; outline: 0px;&quot;&gt;Envia alertas em casos incomuns&lt;/span&gt;&lt;/span&gt;&lt;/font&gt;&lt;/li&gt;&lt;/ul&gt;&lt;font style=&quot;font-size: 15px;&quot; face=&quot;lAAtDH0Apy5etyjpgEaU&quot;&gt;&lt;font style=&quot;font-size: 15px;&quot;&gt;&lt;span style=&quot;margin: 0px; padding: 0px; border: 0px; font-style: normal; vertical-align: baseline; outline: 0px; font-variant-ligatures: normal; font-variant-caps: normal; letter-spacing: normal; text-align: left; text-indent: 0px; text-transform: none; word-spacing: 0px; -webkit-text-stroke-width: 0px; text-decoration-thickness: initial; text-decoration-style: initial; text-decoration-color: initial;&quot;&gt;&lt;ul style=&quot;margin: 4px 0px 0px 16px; padding: 0px; border: 0px; font-style: inherit; vertical-align: baseline; list-style: outside;&quot;&gt;&lt;li style=&quot;margin: 0px 0px 4px; padding: 0px; border: 0px; font-style: inherit; vertical-align: baseline;&quot;&gt;&lt;span style=&quot;margin: 0px; padding: 0px; border: 0px; font-style: inherit; vertical-align: baseline; outline: 0px;&quot;&gt;&lt;span style=&quot;margin: 0px; padding: 0px; border: 0px; font-style: inherit; vertical-align: baseline; outline: 0px;&quot;&gt;&lt;font data-font-src=&quot;https://fonts.googleapis.com/css?family=Kalam&quot; face=&quot;Kalam&quot;&gt;Analisa os dados e checa se é característica de alguma doença&lt;/font&gt;&lt;/span&gt;&lt;/span&gt;&lt;/li&gt;&lt;/ul&gt;&lt;/span&gt;&lt;span style=&quot;margin: 0px; padding: 0px; border: 0px; font-style: normal; vertical-align: baseline; outline: 0px; font-variant-ligatures: normal; font-variant-caps: normal; letter-spacing: normal; text-align: left; text-indent: 0px; text-transform: none; word-spacing: 0px; -webkit-text-stroke-width: 0px; text-decoration-thickness: initial; text-decoration-style: initial; text-decoration-color: initial;&quot;&gt;&lt;/span&gt;&lt;/font&gt;&lt;span style=&quot;margin: 0px; padding: 0px; border: 0px; font-style: normal; vertical-align: baseline; outline: 0px; font-variant-ligatures: normal; font-variant-caps: normal; letter-spacing: normal; text-align: left; text-indent: 0px; text-transform: none; word-spacing: 0px; -webkit-text-stroke-width: 0px; text-decoration-thickness: initial; text-decoration-style: initial; text-decoration-color: initial;&quot;&gt;&lt;ul style=&quot;margin: 4px 0px 0px 16px; padding: 0px; border: 0px; font-style: inherit; vertical-align: baseline; list-style: outside;&quot;&gt;&lt;li style=&quot;margin: 0px 0px 4px; padding: 0px; border: 0px; font-style: inherit; vertical-align: baseline;&quot;&gt;&lt;font data-font-src=&quot;https://fonts.googleapis.com/css?family=Kalam&quot; face=&quot;Kalam&quot; style=&quot;font-size: 15px;&quot;&gt;&lt;span style=&quot;margin: 0px; padding: 0px; border: 0px; font-style: inherit; vertical-align: baseline; outline: 0px;&quot;&gt;&lt;span style=&quot;margin: 0px; padding: 0px; border: 0px; font-style: inherit; vertical-align: baseline; outline: 0px;&quot;&gt;No caso de uma doenças como parada cardíaca&lt;/span&gt;&lt;span style=&quot;margin: 0px; padding: 0px; border: 0px; font-style: inherit; vertical-align: baseline; outline: 0px;&quot;&gt;, AVC&lt;/span&gt;&lt;span style=&quot;margin: 0px; padding: 0px; border: 0px; font-style: inherit; vertical-align: baseline; outline: 0px;&quot;&gt;, epilepsia&lt;/span&gt;&lt;span style=&quot;margin: 0px; padding: 0px; border: 0px; font-style: inherit; vertical-align: baseline; outline: 0px;&quot;&gt;, e outras com efeitos parecidos&lt;/span&gt;&lt;span style=&quot;margin: 0px; padding: 0px; border: 0px; font-style: inherit; vertical-align: baseline; outline: 0px;&quot;&gt;, notifica um hospital próximo quando os efeitos forem ativados&lt;/span&gt;&lt;/span&gt;&lt;/font&gt;&lt;/li&gt;&lt;/ul&gt;&lt;/span&gt;&lt;/font&gt;" style="text;html=1;align=center;verticalAlign=middle;whiteSpace=wrap;rounded=0;labelBackgroundColor=default;" vertex="1" parent="1">
          <mxGeometry x="-220" y="205" width="440" height="160" as="geometry" />
        </mxCell>
        <mxCell id="vd82ChIToTFtdPqPkoJP-15" value="&lt;font face=&quot;Kalam&quot; data-font-src=&quot;https://fonts.googleapis.com/css?family=Kalam&quot;&gt;&lt;br&gt;&lt;/font&gt;&lt;ul style=&quot;margin: 4px 0px 0px 16px; padding: 0px; border: 0px; font-weight: 400; font-style: normal; font-size: 16px; vertical-align: baseline; list-style: outside; font-variant-ligatures: normal; font-variant-caps: normal; letter-spacing: normal; text-align: left; text-indent: 0px; text-transform: none; word-spacing: 0px; -webkit-text-stroke-width: 0px; text-decoration-thickness: initial; text-decoration-style: initial; text-decoration-color: initial;&quot;&gt;&lt;li style=&quot;margin: 0px 0px 4px; padding: 0px; border: 0px; font-weight: inherit; font-style: inherit; font-size: 16px; vertical-align: baseline;&quot;&gt;&lt;font data-font-src=&quot;https://fonts.googleapis.com/css?family=Kalam&quot; face=&quot;Kalam&quot;&gt;&lt;span style=&quot;margin: 0px; padding: 0px; border: 0px; font-weight: inherit; font-style: inherit; font-size: 16px; vertical-align: baseline; outline: 0px;&quot;&gt;&lt;span style=&quot;margin: 0px; padding: 0px; border: 0px; font-weight: inherit; font-style: inherit; font-size: 16px; vertical-align: baseline; outline: 0px;&quot;&gt;Atua diretamente contra a doença&lt;/span&gt;&lt;/span&gt;&lt;/font&gt;&lt;/li&gt;&lt;li style=&quot;margin: 0px 0px 4px; padding: 0px; border: 0px; font-weight: inherit; font-style: inherit; font-size: 16px; vertical-align: baseline;&quot;&gt;&lt;font data-font-src=&quot;https://fonts.googleapis.com/css?family=Kalam&quot; face=&quot;Kalam&quot;&gt;&lt;span style=&quot;margin: 0px; padding: 0px; border: 0px; font-weight: inherit; font-style: inherit; font-size: 16px; vertical-align: baseline; outline: 0px;&quot;&gt;&lt;span style=&quot;margin: 0px; padding: 0px; border: 0px; font-weight: inherit; font-style: inherit; font-size: 16px; vertical-align: baseline; outline: 0px;&quot;&gt;Cura os pacientes&lt;/span&gt;&lt;/span&gt;&lt;/font&gt;&lt;/li&gt;&lt;li style=&quot;margin: 0px 0px 4px; padding: 0px; border: 0px; font-weight: inherit; font-style: inherit; font-size: 16px; vertical-align: baseline;&quot;&gt;&lt;font data-font-src=&quot;https://fonts.googleapis.com/css?family=Kalam&quot; face=&quot;Kalam&quot;&gt;&lt;span style=&quot;margin: 0px; padding: 0px; border: 0px; font-weight: inherit; font-style: inherit; font-size: 16px; vertical-align: baseline; outline: 0px;&quot;&gt;&lt;span style=&quot;margin: 0px; padding: 0px; border: 0px; font-weight: inherit; font-style: inherit; font-size: 16px; vertical-align: baseline; outline: 0px;&quot;&gt;Aplica medicamentos&lt;/span&gt;&lt;/span&gt;&lt;/font&gt;&lt;/li&gt;&lt;li style=&quot;margin: 0px 0px 4px; padding: 0px; border: 0px; font-weight: inherit; font-style: inherit; font-size: 16px; vertical-align: baseline;&quot;&gt;&lt;font data-font-src=&quot;https://fonts.googleapis.com/css?family=Kalam&quot; face=&quot;Kalam&quot;&gt;&lt;span style=&quot;margin: 0px; padding: 0px; border: 0px; font-weight: inherit; font-style: inherit; font-size: 16px; vertical-align: baseline; outline: 0px;&quot;&gt;&lt;span style=&quot;margin: 0px; padding: 0px; border: 0px; font-weight: inherit; font-style: inherit; font-size: 16px; vertical-align: baseline; outline: 0px;&quot;&gt;marcar consultas&lt;/span&gt;&lt;/span&gt;&lt;/font&gt;&lt;/li&gt;&lt;li style=&quot;margin: 0px 0px 4px; padding: 0px; border: 0px; font-weight: inherit; font-style: inherit; font-size: 16px; vertical-align: baseline;&quot;&gt;&lt;font data-font-src=&quot;https://fonts.googleapis.com/css?family=Kalam&quot; face=&quot;Kalam&quot;&gt;&lt;span style=&quot;margin: 0px; padding: 0px; border: 0px; font-weight: inherit; font-style: inherit; font-size: 16px; vertical-align: baseline; outline: 0px;&quot;&gt;&lt;span style=&quot;margin: 0px; padding: 0px; border: 0px; font-weight: inherit; font-style: inherit; font-size: 16px; vertical-align: baseline; outline: 0px;&quot;&gt;Compartilhamento de dados sem autorização dos usuários&lt;/span&gt;&lt;span style=&quot;margin: 0px; padding: 0px; border: 0px; font-weight: inherit; font-style: inherit; font-size: 16px; vertical-align: baseline; outline: 0px;&quot;&gt;;&lt;/span&gt;&lt;/span&gt;&lt;/font&gt;&lt;/li&gt;&lt;li style=&quot;margin: 0px 0px 4px; padding: 0px; border: 0px; font-weight: inherit; font-style: inherit; font-size: 16px; vertical-align: baseline;&quot;&gt;&lt;font data-font-src=&quot;https://fonts.googleapis.com/css?family=Kalam&quot; face=&quot;Kalam&quot;&gt;&lt;span style=&quot;margin: 0px; padding: 0px; border: 0px; font-weight: inherit; font-style: inherit; font-size: 16px; vertical-align: baseline; outline: 0px;&quot;&gt;&lt;span style=&quot;margin: 0px; padding: 0px; border: 0px; font-weight: inherit; font-style: inherit; font-size: 16px; vertical-align: baseline; outline: 0px;&quot;&gt;Monitoramento sem premissão do usuario&lt;/span&gt;&lt;span style=&quot;margin: 0px; padding: 0px; border: 0px; font-weight: inherit; font-style: inherit; font-size: 16px; vertical-align: baseline; outline: 0px;&quot;&gt;;&lt;/span&gt;&lt;/span&gt;&lt;/font&gt;&lt;/li&gt;&lt;li style=&quot;margin: 0px 0px 4px; padding: 0px; border: 0px; font-weight: inherit; font-style: inherit; font-size: 16px; vertical-align: baseline;&quot;&gt;&lt;font data-font-src=&quot;https://fonts.googleapis.com/css?family=Kalam&quot; face=&quot;Kalam&quot;&gt;&lt;span style=&quot;margin: 0px; padding: 0px; border: 0px; font-weight: inherit; font-style: inherit; font-size: 16px; vertical-align: baseline; outline: 0px;&quot;&gt;&lt;span style=&quot;margin: 0px; padding: 0px; border: 0px; font-weight: inherit; font-style: inherit; font-size: 16px; vertical-align: baseline; outline: 0px;&quot;&gt;Não estabelece metas&lt;/span&gt;&lt;span style=&quot;margin: 0px; padding: 0px; border: 0px; font-weight: inherit; font-style: inherit; font-size: 16px; vertical-align: baseline; outline: 0px;&quot;&gt;, como meta diária de agua consumida&lt;/span&gt;&lt;span style=&quot;margin: 0px; padding: 0px; border: 0px; font-weight: inherit; font-style: inherit; font-size: 16px; vertical-align: baseline; outline: 0px;&quot;&gt;, ou meta de distância caminhada&lt;/span&gt;&lt;span style=&quot;margin: 0px; padding: 0px; border: 0px; font-weight: inherit; font-style: inherit; font-size: 16px; vertical-align: baseline; outline: 0px;&quot;&gt;.&lt;/span&gt;&lt;/span&gt;&lt;/font&gt;&lt;/li&gt;&lt;/ul&gt;" style="text;html=1;align=center;verticalAlign=middle;whiteSpace=wrap;rounded=0;fontColor=default;labelBackgroundColor=default;" vertex="1" parent="1">
          <mxGeometry x="230" y="180" width="440" height="210" as="geometry" />
        </mxCell>
      </root>
    </mxGraphModel>
  </diagram>
</mxfile>
